# Blender 3.4.1
# www.blender.org
mtllib newFlag6.mtl
o Plane
v -0.001025 0.000000 -0.000000
v 3.950227 0.000000 0.000000
v -0.001025 0.000000 2.382826
v 8.888010 0.000000 -2.382826
v -0.001025 0.000000 -2.382827
v 8.888010 0.000000 2.382827
v 1.975113 0.000000 -0.000000
v 3.950227 0.000000 -2.382827
v 3.950227 0.000000 2.382827
v 1.975113 0.000000 2.382826
v 1.975113 0.000000 -2.382827
v 5.925340 0.000000 -2.382826
v 5.925340 0.000000 2.382827
v -0.001025 0.000000 -1.191413
v 2.962670 0.000000 -0.000000
v 3.950227 0.000000 1.191413
v -0.001025 0.000000 1.191413
v 4.937783 0.000000 0.000000
v 0.987557 0.000000 -0.000000
v 3.950227 0.000000 -1.191413
v 2.962670 0.000000 2.382827
v 0.987557 0.000000 2.382826
v 1.975113 0.000000 1.191413
v 2.962670 0.000000 -2.382827
v 0.987557 0.000000 -2.382827
v 1.975113 0.000000 -1.191413
v 7.900453 0.000000 -2.382826
v 4.937783 0.000000 -2.382827
v 5.925340 0.000000 -1.191413
v 7.900453 0.000000 2.382827
v 4.937783 0.000000 2.382827
v 5.925340 0.000000 1.191413
v 4.937783 0.000000 1.191413
v 4.937783 0.000000 -1.191413
v 0.987557 0.000000 -1.191413
v 0.987557 0.000000 1.191413
v 2.962670 0.000000 1.191413
v 2.962670 0.000000 -1.191413
v 5.925340 -0.002733 -0.655459
v 7.900453 0.002213 -1.813371
v 6.912897 0.000000 -1.191413
v 6.912897 0.000000 1.191413
v 5.925340 -0.002733 0.655459
v 7.900453 0.002213 1.813372
v 0.002392 -0.031276 -1.191413
v 0.002392 -0.031276 -0.000000
v 2.962670 -0.031276 -0.000000
v 3.950227 -0.031276 0.000000
v 3.950227 -0.031276 1.191413
v -0.001025 -0.031276 1.191413
v -0.001025 -0.031276 2.382826
v 0.987557 -0.031276 -0.000000
v 1.975113 -0.031276 -0.000000
v 3.950227 -0.031276 -1.191413
v 3.950227 -0.031276 -2.382827
v 2.962670 -0.031276 2.382827
v 3.950227 -0.031276 2.382827
v 0.987557 -0.031276 2.382826
v 1.975113 -0.031276 2.382826
v 1.975113 -0.031276 1.191413
v 2.962670 -0.031276 -2.382827
v 0.987557 -0.031276 -2.382827
v 1.975113 -0.031276 -2.382827
v 1.975113 -0.031276 -1.191413
v 7.900453 -0.031276 -2.382826
v 8.888010 -0.031276 -2.382826
v 4.937783 -0.031276 -2.382827
v 5.925340 -0.031276 -2.382826
v 5.925340 -0.031276 -1.191413
v 7.900453 -0.031276 2.382827
v 8.888010 -0.031276 2.382827
v 4.937783 -0.031276 2.382827
v 5.925340 -0.031276 2.382827
v 0.002392 -0.031276 -2.382827
v 4.937783 -0.031276 0.000000
v 5.925340 -0.028543 -0.655459
v 5.925340 -0.031276 1.191413
v 4.937783 -0.031276 1.191413
v 4.937783 -0.031276 -1.191413
v 0.987557 -0.031276 -1.191413
v 0.987557 -0.031276 1.191413
v 2.962670 -0.031276 1.191413
v 2.962670 -0.031276 -1.191413
v 7.900453 -0.033489 -1.813371
v 6.912897 -0.031276 -1.191413
v 6.912897 -0.031276 1.191413
v 5.925340 -0.028543 0.655459
v 7.900453 -0.033489 1.813372
vn -0.0000 -1.0000 -0.0000
vn -0.0019 -1.0000 -0.0016
vn -0.0019 -1.0000 0.0016
vn 0.0006 -1.0000 -0.0005
vn -0.0000 -1.0000 0.0039
vn 0.0006 -1.0000 0.0005
vn -0.0000 -1.0000 -0.0051
vn -0.0000 -1.0000 0.0051
vn -0.0000 -1.0000 -0.0039
vn -0.0000 1.0000 -0.0000
vn -0.0019 1.0000 -0.0016
vn -0.0019 1.0000 0.0016
vn 0.0006 1.0000 -0.0005
vn -0.0000 1.0000 0.0039
vn 0.0006 1.0000 0.0005
vn -0.0000 1.0000 -0.0051
vn -0.0000 1.0000 0.0051
vn -0.0000 1.0000 -0.0039
vn -0.0000 -0.0000 1.0000
vn -0.0000 -0.0000 -1.0000
vn -0.4770 -0.0000 0.8789
vn -0.4995 -0.0000 0.8663
vn -0.5329 -0.0000 -0.8462
vn 0.9941 0.1086 -0.0000
vn -0.5329 -0.0000 0.8462
vn -0.4770 -0.0000 -0.8789
vn -0.5530 -0.0000 0.8332
vn 1.0000 -0.0000 -0.0000
vn -0.5530 -0.0000 -0.8332
vn -0.4995 -0.0000 -0.8663
vn 0.9985 0.0545 0.0014
vt 0.318070 0.508930
vt 0.318070 0.551481
vt 0.333702 0.128808
vt 0.291151 0.213909
vt 0.291151 0.128808
vt 0.333702 0.213909
vt 0.318070 0.530206
vt 0.291151 0.171358
vt 0.333702 0.171358
vt 0.333702 0.150083
vt 0.291151 0.150083
vt 0.291151 0.192634
vt 0.333702 0.192634
vt 0.307433 0.508930
vt 0.301789 0.128808
vt 0.318070 0.540843
vt 0.323064 0.171358
vt 0.328708 0.551481
vt 0.323064 0.128808
vt 0.328708 0.508930
vt 0.318070 0.562119
vt 0.318070 0.519568
vt 0.307433 0.551481
vt 0.301789 0.171358
vt 0.333702 0.160721
vt 0.333702 0.139445
vt 0.328708 0.530206
vt 0.323064 0.150083
vt 0.291151 0.160721
vt 0.291151 0.139445
vt 0.301789 0.150083
vt 0.307433 0.530206
vt 0.291151 0.203271
vt 0.291151 0.181996
vt 0.301789 0.192634
vt 0.307433 0.572757
vt 0.333702 0.203271
vt 0.333702 0.181996
vt 0.323064 0.192634
vt 0.328708 0.572757
vt 0.328708 0.562119
vt 0.323064 0.181996
vt 0.301789 0.181996
vt 0.307433 0.562119
vt 0.301789 0.139445
vt 0.307433 0.519568
vt 0.328708 0.519568
vt 0.323064 0.139445
vt 0.328708 0.540843
vt 0.323064 0.160721
vt 0.301789 0.160721
vt 0.307433 0.540843
vt 0.310979 0.572757
vt 0.298243 0.203271
vt 0.301789 0.197953
vt 0.307433 0.578075
vt 0.328708 0.578075
vt 0.323064 0.197953
vt 0.325162 0.572757
vt 0.326610 0.203271
vt 0.307433 0.508930
vt 0.301789 0.128808
vt 0.318070 0.508930
vt 0.318070 0.540843
vt 0.318070 0.551481
vt 0.323064 0.171358
vt 0.328708 0.551481
vt 0.323064 0.128808
vt 0.328708 0.508930
vt 0.333702 0.128808
vt 0.318070 0.519568
vt 0.318070 0.530206
vt 0.307433 0.551481
vt 0.301789 0.171358
vt 0.291151 0.171358
vt 0.333702 0.160721
vt 0.333702 0.171358
vt 0.333702 0.139445
vt 0.333702 0.150083
vt 0.328708 0.530206
vt 0.323064 0.150083
vt 0.291151 0.160721
vt 0.291151 0.139445
vt 0.291151 0.150083
vt 0.301789 0.150083
vt 0.307433 0.530206
vt 0.291151 0.203271
vt 0.291151 0.213909
vt 0.291151 0.181996
vt 0.291151 0.192634
vt 0.301789 0.192634
vt 0.307433 0.572757
vt 0.333702 0.203271
vt 0.333702 0.213909
vt 0.333702 0.181996
vt 0.333702 0.192634
vt 0.291151 0.128808
vt 0.318070 0.562119
vt 0.310979 0.572757
vt 0.323064 0.192634
vt 0.328708 0.572757
vt 0.328708 0.562119
vt 0.323064 0.181996
vt 0.301789 0.181996
vt 0.307433 0.562119
vt 0.301789 0.139445
vt 0.307433 0.519568
vt 0.328708 0.519568
vt 0.323064 0.139445
vt 0.328708 0.540843
vt 0.323064 0.160721
vt 0.301789 0.160721
vt 0.307433 0.540843
vt 0.298243 0.203271
vt 0.301789 0.197953
vt 0.307433 0.578075
vt 0.328708 0.578075
vt 0.323064 0.197953
vt 0.325162 0.572757
vt 0.326610 0.203271
s 0
usemtl Material.001
f 38/52/1 20/23/1 2/2/1 15/16/1
f 37/50/1 16/17/1 9/9/1 21/25/1
f 36/48/1 23/28/1 10/10/1 22/26/1
f 35/46/1 26/32/1 7/7/1 19/22/1
f 34/44/2 29/36/2 39/53/2 18/21/2
f 33/42/1 32/39/1 13/13/1 31/38/1
f 18/21/3 43/59/3 32/40/3 33/41/3
f 2/2/1 18/21/1 33/41/1 16/18/1
f 16/17/1 33/42/1 31/38/1 9/9/1
f 32/39/4 42/58/4 44/60/4 30/37/4 13/13/4
f 28/34/1 12/12/1 29/35/1 34/43/1
f 8/8/1 28/34/1 34/43/1 20/24/1
f 20/23/1 34/44/1 18/21/1 2/2/1
f 25/30/1 11/11/1 26/31/1 35/45/1
f 5/5/1 25/30/1 35/45/1 14/15/1
f 14/14/1 35/46/1 19/22/1 1/1/1
f 19/22/1 7/7/1 23/27/1 36/47/1
f 1/1/1 19/22/1 36/47/1 17/20/1
f 17/19/1 36/48/1 22/26/1 3/3/1
f 15/16/1 2/2/1 16/18/1 37/49/1
f 7/7/1 15/16/1 37/49/1 23/27/1
f 23/28/1 37/50/1 21/25/1 10/10/1
f 24/29/1 8/8/1 20/24/1 38/51/1
f 11/11/1 24/29/1 38/51/1 26/31/1
f 26/32/1 38/52/1 15/16/1 7/7/1
f 27/33/5 4/4/5 40/54/5
f 12/12/6 27/33/6 40/54/6 41/55/6 29/35/6
f 29/36/7 41/56/7 39/53/7
f 42/57/8 32/40/8 43/59/8
f 6/6/9 30/37/9 44/60/9
f 83/113/10 47/64/10 48/65/10 54/73/10
f 82/111/10 56/76/10 57/77/10 49/66/10
f 81/109/10 58/78/10 59/79/10 60/81/10
f 80/107/10 52/71/10 53/72/10 64/86/10
f 79/105/11 75/98/11 76/99/11 69/92/11
f 78/103/10 72/95/10 73/96/10 77/100/10
f 75/98/12 78/102/12 77/101/12 87/119/12
f 48/65/10 49/67/10 78/102/10 75/98/10
f 49/66/10 57/77/10 72/95/10 78/103/10
f 77/100/13 73/96/13 70/93/13 88/120/13 86/118/13
f 67/89/10 79/104/10 69/91/10 68/90/10
f 55/75/10 54/74/10 79/104/10 67/89/10
f 54/73/10 48/65/10 75/98/10 79/105/10
f 62/83/10 80/106/10 64/85/10 63/84/10
f 74/97/10 45/62/10 80/106/10 62/83/10
f 45/61/10 46/63/10 52/71/10 80/107/10
f 52/71/10 81/108/10 60/80/10 53/72/10
f 46/63/10 50/69/10 81/108/10 52/71/10
f 50/68/10 51/70/10 58/78/10 81/109/10
f 47/64/10 82/110/10 49/67/10 48/65/10
f 53/72/10 60/80/10 82/110/10 47/64/10
f 60/81/10 59/79/10 56/76/10 82/111/10
f 61/82/10 83/112/10 54/74/10 55/75/10
f 63/84/10 64/85/10 83/112/10 61/82/10
f 64/86/10 53/72/10 47/64/10 83/113/10
f 65/87/14 84/114/14 66/88/14
f 68/90/15 69/91/15 85/115/15 84/114/15 65/87/15
f 69/92/16 76/99/16 85/116/16
f 86/117/17 87/119/17 77/101/17
f 71/94/18 88/120/18 70/93/18
f 8/8/19 24/29/19 61/82/19 55/75/19
f 11/11/19 25/30/19 62/83/19 63/84/19
f 10/10/20 21/25/20 56/76/20 59/79/20
f 42/57/21 43/59/21 87/119/21 86/117/21
f 3/3/20 22/26/20 58/78/20 51/70/20
f 4/4/19 27/33/19 65/87/19 66/88/19
f 6/6/22 44/60/22 88/120/22 71/94/22
f 12/12/19 28/34/19 67/89/19 68/90/19
f 41/55/23 40/54/23 84/114/23 85/115/23
f 14/14/24 1/1/24 46/63/24 45/61/24
f 24/29/19 11/11/19 63/84/19 61/82/19
f 44/60/25 42/58/25 86/118/25 88/120/25
f 25/30/19 5/5/19 74/97/19 62/83/19
f 30/37/20 6/6/20 71/94/20 70/93/20
f 39/53/26 41/56/26 85/116/26 76/99/26
f 31/38/20 13/13/20 73/96/20 72/95/20
f 43/59/27 18/21/27 75/98/27 87/119/27
f 17/19/28 3/3/28 51/70/28 50/68/28
f 27/33/19 12/12/19 68/90/19 65/87/19
f 5/5/24 14/15/24 45/62/24 74/97/24
f 18/21/29 39/53/29 76/99/29 75/98/29
f 28/34/19 8/8/19 55/75/19 67/89/19
f 40/54/30 4/4/30 66/88/30 84/114/30
f 21/25/20 9/9/20 57/77/20 56/76/20
f 13/13/20 30/37/20 70/93/20 73/96/20
f 1/1/31 17/20/31 50/69/31 46/63/31
f 22/26/20 10/10/20 59/79/20 58/78/20
f 9/9/20 31/38/20 72/95/20 57/77/20
